<?xml version="1.0" encoding="UTF-8" standalone="no"?>
<!DOCTYPE svg PUBLIC "-//W3C//DTD SVG 1.1//EN"
 "http://www.w3.org/Graphics/SVG/1.1/DTD/svg11.dtd">
<!-- Generated by graphviz version 2.43.0 (0)
 -->
<!-- Title: APIDesignSideWise Pages: 1 -->
<svg width="391pt" height="814pt"
 viewBox="0.00 0.00 391.00 814.00" xmlns="http://www.w3.org/2000/svg" xmlns:xlink="http://www.w3.org/1999/xlink">
<g id="graph0" class="graph" transform="scale(1 1) rotate(0) translate(4 810)">
<title>APIDesignSideWise</title>
<polygon fill="white" stroke="transparent" points="-4,4 -4,-810 387,-810 387,4 -4,4"/>
<g id="clust1" class="cluster">
<title>cluster_auth</title>
<path fill="none" stroke="lightgrey" d="M166,-727C166,-727 304,-727 304,-727 310,-727 316,-733 316,-739 316,-739 316,-786 316,-786 316,-792 310,-798 304,-798 304,-798 166,-798 166,-798 160,-798 154,-792 154,-786 154,-786 154,-739 154,-739 154,-733 160,-727 166,-727"/>
<text text-anchor="middle" x="235" y="-786" font-family="Times,serif" font-size="10.00">Auth</text>
</g>
<g id="clust2" class="cluster">
<title>cluster_products</title>
<path fill="none" stroke="lightgrey" d="M165,-594C165,-594 305,-594 305,-594 311,-594 317,-600 317,-606 317,-606 317,-707 317,-707 317,-713 311,-719 305,-719 305,-719 165,-719 165,-719 159,-719 153,-713 153,-707 153,-707 153,-606 153,-606 153,-600 159,-594 165,-594"/>
<text text-anchor="middle" x="235" y="-707" font-family="Times,serif" font-size="10.00">Products</text>
</g>
<g id="clust3" class="cluster">
<title>cluster_cart</title>
<path fill="none" stroke="lightgrey" d="M148.5,-461C148.5,-461 321.5,-461 321.5,-461 327.5,-461 333.5,-467 333.5,-473 333.5,-473 333.5,-574 333.5,-574 333.5,-580 327.5,-586 321.5,-586 321.5,-586 148.5,-586 148.5,-586 142.5,-586 136.5,-580 136.5,-574 136.5,-574 136.5,-473 136.5,-473 136.5,-467 142.5,-461 148.5,-461"/>
<text text-anchor="middle" x="235" y="-574" font-family="Times,serif" font-size="10.00">Cart</text>
</g>
<g id="clust4" class="cluster">
<title>cluster_orders</title>
<path fill="none" stroke="lightgrey" d="M164,-328C164,-328 306,-328 306,-328 312,-328 318,-334 318,-340 318,-340 318,-441 318,-441 318,-447 312,-453 306,-453 306,-453 164,-453 164,-453 158,-453 152,-447 152,-441 152,-441 152,-340 152,-340 152,-334 158,-328 164,-328"/>
<text text-anchor="middle" x="235" y="-441" font-family="Times,serif" font-size="10.00">Orders</text>
</g>
<g id="clust5" class="cluster">
<title>cluster_payments</title>
<path fill="none" stroke="lightgrey" d="M146.5,-249C146.5,-249 323.5,-249 323.5,-249 329.5,-249 335.5,-255 335.5,-261 335.5,-261 335.5,-308 335.5,-308 335.5,-314 329.5,-320 323.5,-320 323.5,-320 146.5,-320 146.5,-320 140.5,-320 134.5,-314 134.5,-308 134.5,-308 134.5,-261 134.5,-261 134.5,-255 140.5,-249 146.5,-249"/>
<text text-anchor="middle" x="235" y="-308" font-family="Times,serif" font-size="10.00">Payments</text>
</g>
<g id="clust6" class="cluster">
<title>cluster_admin</title>
<path fill="none" stroke="lightgrey" d="M107,-8C107,-8 363,-8 363,-8 369,-8 375,-14 375,-20 375,-20 375,-229 375,-229 375,-235 369,-241 363,-241 363,-241 107,-241 107,-241 101,-241 95,-235 95,-229 95,-229 95,-20 95,-20 95,-14 101,-8 107,-8"/>
<text text-anchor="middle" x="235" y="-229" font-family="Times,serif" font-size="10.00">Admin</text>
</g>
<!-- API -->
<g id="node1" class="node">
<title>API</title>
<polygon fill="#e3f2fd" stroke="black" points="67,-399 64,-403 43,-403 40,-399 0,-399 0,-363 67,-363 67,-399"/>
<text text-anchor="middle" x="33.5" y="-377.3" font-family="Times,serif" font-size="14.00">🌐 /api</text>
</g>
<!-- AuthRoute -->
<g id="node2" class="node">
<title>AuthRoute</title>
<polygon fill="none" stroke="black" points="302,-771 162,-771 162,-735 308,-735 308,-765 302,-771"/>
<polyline fill="none" stroke="black" points="302,-771 302,-765 "/>
<polyline fill="none" stroke="black" points="308,-765 302,-765 "/>
<text text-anchor="middle" x="235" y="-749.3" font-family="Times,serif" font-size="14.00">/auth/[...nextauth]</text>
</g>
<!-- API&#45;&gt;AuthRoute -->
<g id="edge1" class="edge">
<title>API&#45;&gt;AuthRoute</title>
<path fill="none" stroke="black" d="M35.12,-399.11C37.7,-462.91 49.61,-675.88 95,-723 109.93,-738.5 130.82,-746.93 151.87,-751.29"/>
<polygon fill="black" stroke="black" points="151.4,-754.76 161.86,-753.07 152.63,-747.87 151.4,-754.76"/>
</g>
<!-- ProductsList -->
<g id="node3" class="node">
<title>ProductsList</title>
<polygon fill="none" stroke="black" points="288.5,-692 175.5,-692 175.5,-656 294.5,-656 294.5,-686 288.5,-692"/>
<polyline fill="none" stroke="black" points="288.5,-692 288.5,-686 "/>
<polyline fill="none" stroke="black" points="294.5,-686 288.5,-686 "/>
<text text-anchor="middle" x="235" y="-670.3" font-family="Times,serif" font-size="14.00">GET /products</text>
</g>
<!-- API&#45;&gt;ProductsList -->
<g id="edge2" class="edge">
<title>API&#45;&gt;ProductsList</title>
<path fill="none" stroke="black" d="M36.09,-399.16C41.2,-453.32 59.03,-612.15 95,-647 113.47,-664.89 140.05,-672.67 165.03,-675.61"/>
<polygon fill="black" stroke="black" points="164.95,-679.12 175.23,-676.57 165.6,-672.15 164.95,-679.12"/>
</g>
<!-- ProductById -->
<g id="node4" class="node">
<title>ProductById</title>
<polygon fill="none" stroke="black" points="303,-638 161,-638 161,-602 309,-602 309,-632 303,-638"/>
<polyline fill="none" stroke="black" points="303,-638 303,-632 "/>
<polyline fill="none" stroke="black" points="309,-632 303,-632 "/>
<text text-anchor="middle" x="235" y="-616.3" font-family="Times,serif" font-size="14.00">GET /products/[id]</text>
</g>
<!-- API&#45;&gt;ProductById -->
<g id="edge3" class="edge">
<title>API&#45;&gt;ProductById</title>
<path fill="none" stroke="black" d="M33.99,-399.23C33.91,-439.89 39.76,-538.46 95,-590 110.2,-604.18 130.44,-612.28 150.77,-616.76"/>
<polygon fill="black" stroke="black" points="150.25,-620.23 160.73,-618.69 151.57,-613.36 150.25,-620.23"/>
</g>
<!-- CartList -->
<g id="node5" class="node">
<title>CartList</title>
<polygon fill="none" stroke="black" points="295,-559 169,-559 169,-523 301,-523 301,-553 295,-559"/>
<polyline fill="none" stroke="black" points="295,-559 295,-553 "/>
<polyline fill="none" stroke="black" points="301,-553 295,-553 "/>
<text text-anchor="middle" x="235" y="-537.3" font-family="Times,serif" font-size="14.00">GET, POST /cart</text>
</g>
<!-- API&#45;&gt;CartList -->
<g id="edge4" class="edge">
<title>API&#45;&gt;CartList</title>
<path fill="none" stroke="black" d="M37.38,-399.31C42.97,-428.42 58.15,-484.94 95,-514 112.99,-528.19 136.31,-535.63 158.7,-539.35"/>
<polygon fill="black" stroke="black" points="158.5,-542.86 168.89,-540.81 159.49,-535.93 158.5,-542.86"/>
</g>
<!-- CartById -->
<g id="node6" class="node">
<title>CartById</title>
<polygon fill="none" stroke="black" points="319.5,-505 144.5,-505 144.5,-469 325.5,-469 325.5,-499 319.5,-505"/>
<polyline fill="none" stroke="black" points="319.5,-505 319.5,-499 "/>
<polyline fill="none" stroke="black" points="325.5,-499 319.5,-499 "/>
<text text-anchor="middle" x="235" y="-483.3" font-family="Times,serif" font-size="14.00">PUT, DELETE /cart/[id]</text>
</g>
<!-- API&#45;&gt;CartById -->
<g id="edge5" class="edge">
<title>API&#45;&gt;CartById</title>
<path fill="none" stroke="black" d="M43.97,-399.04C54.17,-416.64 72.07,-442.77 95,-457 107.1,-464.51 120.81,-470.16 134.78,-474.41"/>
<polygon fill="black" stroke="black" points="133.9,-477.79 144.48,-477.13 135.79,-471.05 133.9,-477.79"/>
</g>
<!-- OrdersList -->
<g id="node7" class="node">
<title>OrdersList</title>
<polygon fill="none" stroke="black" points="304,-426 160,-426 160,-390 310,-390 310,-420 304,-426"/>
<polyline fill="none" stroke="black" points="304,-426 304,-420 "/>
<polyline fill="none" stroke="black" points="310,-420 304,-420 "/>
<text text-anchor="middle" x="235" y="-404.3" font-family="Times,serif" font-size="14.00">GET, POST /orders</text>
</g>
<!-- API&#45;&gt;OrdersList -->
<g id="edge6" class="edge">
<title>API&#45;&gt;OrdersList</title>
<path fill="none" stroke="black" d="M67.44,-385.46C89.92,-388.5 120.76,-392.67 149.8,-396.6"/>
<polygon fill="black" stroke="black" points="149.6,-400.11 159.98,-397.98 150.54,-393.17 149.6,-400.11"/>
</g>
<!-- OrderById -->
<g id="node8" class="node">
<title>OrderById</title>
<polygon fill="none" stroke="black" points="294.5,-372 169.5,-372 169.5,-336 300.5,-336 300.5,-366 294.5,-372"/>
<polyline fill="none" stroke="black" points="294.5,-372 294.5,-366 "/>
<polyline fill="none" stroke="black" points="300.5,-366 294.5,-366 "/>
<text text-anchor="middle" x="235" y="-350.3" font-family="Times,serif" font-size="14.00">GET /orders/[id]</text>
</g>
<!-- API&#45;&gt;OrderById -->
<g id="edge7" class="edge">
<title>API&#45;&gt;OrderById</title>
<path fill="none" stroke="black" d="M67.44,-376.54C92.31,-373.18 127.43,-368.42 159.01,-364.15"/>
<polygon fill="black" stroke="black" points="159.68,-367.59 169.12,-362.78 158.74,-360.65 159.68,-367.59"/>
</g>
<!-- PaymentCreate -->
<g id="node9" class="node">
<title>PaymentCreate</title>
<polygon fill="none" stroke="black" points="321.5,-293 142.5,-293 142.5,-257 327.5,-257 327.5,-287 321.5,-293"/>
<polyline fill="none" stroke="black" points="321.5,-293 321.5,-287 "/>
<polyline fill="none" stroke="black" points="327.5,-287 321.5,-287 "/>
<text text-anchor="middle" x="235" y="-271.3" font-family="Times,serif" font-size="14.00">POST /payments/create</text>
</g>
<!-- API&#45;&gt;PaymentCreate -->
<g id="edge8" class="edge">
<title>API&#45;&gt;PaymentCreate</title>
<path fill="none" stroke="black" d="M49.88,-362.97C61.27,-350.57 77.75,-334.51 95,-324 113.49,-312.74 134.93,-303.56 155.37,-296.33"/>
<polygon fill="black" stroke="black" points="156.66,-299.59 164.98,-293.04 154.39,-292.97 156.66,-299.59"/>
</g>
<!-- AdminProducts -->
<g id="node10" class="node">
<title>AdminProducts</title>
<polygon fill="none" stroke="black" points="336.5,-214 127.5,-214 127.5,-178 342.5,-178 342.5,-208 336.5,-214"/>
<polyline fill="none" stroke="black" points="336.5,-214 336.5,-208 "/>
<polyline fill="none" stroke="black" points="342.5,-208 336.5,-208 "/>
<text text-anchor="middle" x="235" y="-192.3" font-family="Times,serif" font-size="14.00">GET, POST /admin/products</text>
</g>
<!-- API&#45;&gt;AdminProducts -->
<g id="edge9" class="edge">
<title>API&#45;&gt;AdminProducts</title>
<path fill="none" stroke="black" d="M37.77,-362.9C43.92,-334.01 59.88,-277.43 95,-245 107.49,-233.46 122.87,-224.62 138.78,-217.84"/>
<polygon fill="black" stroke="black" points="140.21,-221.04 148.2,-214.08 137.62,-214.53 140.21,-221.04"/>
</g>
<!-- AdminProductById -->
<g id="node11" class="node">
<title>AdminProductById</title>
<polygon fill="none" stroke="black" points="361,-160 103,-160 103,-124 367,-124 367,-154 361,-160"/>
<polyline fill="none" stroke="black" points="361,-160 361,-154 "/>
<polyline fill="none" stroke="black" points="367,-154 361,-154 "/>
<text text-anchor="middle" x="235" y="-138.3" font-family="Times,serif" font-size="14.00">PUT, DELETE /admin/products/[id]</text>
</g>
<!-- API&#45;&gt;AdminProductById -->
<g id="edge10" class="edge">
<title>API&#45;&gt;AdminProductById</title>
<path fill="none" stroke="black" d="M33.82,-362.74C33.37,-321.54 38.45,-220.88 95,-169 96.13,-167.96 97.29,-166.96 98.48,-165.99"/>
<polygon fill="black" stroke="black" points="100.61,-168.76 106.65,-160.06 96.5,-163.1 100.61,-168.76"/>
</g>
<!-- AdminOrders -->
<g id="node12" class="node">
<title>AdminOrders</title>
<polygon fill="none" stroke="black" points="305,-106 159,-106 159,-70 311,-70 311,-100 305,-106"/>
<polyline fill="none" stroke="black" points="305,-106 305,-100 "/>
<polyline fill="none" stroke="black" points="311,-100 305,-100 "/>
<text text-anchor="middle" x="235" y="-84.3" font-family="Times,serif" font-size="14.00">GET /admin/orders</text>
</g>
<!-- API&#45;&gt;AdminOrders -->
<g id="edge11" class="edge">
<title>API&#45;&gt;AdminOrders</title>
<path fill="none" stroke="black" d="M36.09,-362.84C41.2,-308.68 59.03,-149.85 95,-115 109.5,-100.95 129,-93.14 148.8,-89.01"/>
<polygon fill="black" stroke="black" points="149.62,-92.42 158.84,-87.21 148.38,-85.53 149.62,-92.42"/>
</g>
<!-- AdminOrderById -->
<g id="node13" class="node">
<title>AdminOrderById</title>
<polygon fill="none" stroke="black" points="318.5,-52 145.5,-52 145.5,-16 324.5,-16 324.5,-46 318.5,-52"/>
<polyline fill="none" stroke="black" points="318.5,-52 318.5,-46 "/>
<polyline fill="none" stroke="black" points="324.5,-46 318.5,-46 "/>
<text text-anchor="middle" x="235" y="-30.3" font-family="Times,serif" font-size="14.00">PUT /admin/orders/[id]</text>
</g>
<!-- API&#45;&gt;AdminOrderById -->
<g id="edge12" class="edge">
<title>API&#45;&gt;AdminOrderById</title>
<path fill="none" stroke="black" d="M35.34,-362.75C38.53,-301.42 52.03,-104.19 95,-61 106.09,-49.85 120.33,-42.59 135.43,-37.96"/>
<polygon fill="black" stroke="black" points="136.7,-41.25 145.46,-35.29 134.9,-34.48 136.7,-41.25"/>
</g>
</g>
</svg>
