<?xml version="1.0" encoding="UTF-8" standalone="no"?>
<!DOCTYPE svg PUBLIC "-//W3C//DTD SVG 1.1//EN"
 "http://www.w3.org/Graphics/SVG/1.1/DTD/svg11.dtd">
<!-- Generated by graphviz version 2.43.0 (0)
 -->
<!-- Title: DatabaseDesign Pages: 1 -->
<svg width="742pt" height="489pt"
 viewBox="0.00 0.00 742.00 489.00" xmlns="http://www.w3.org/2000/svg" xmlns:xlink="http://www.w3.org/1999/xlink">
<g id="graph0" class="graph" transform="scale(1 1) rotate(0) translate(4 485)">
<title>DatabaseDesign</title>
<polygon fill="white" stroke="transparent" points="-4,4 -4,-485 738,-485 738,4 -4,4"/>
<!-- User -->
<g id="node1" class="node">
<title>User</title>
<polygon fill="#f2f8ff" stroke="transparent" points="8,-168.5 8,-189.5 176,-189.5 176,-168.5 8,-168.5"/>
<polygon fill="none" stroke="black" points="8,-168.5 8,-189.5 176,-189.5 176,-168.5 8,-168.5"/>
<text text-anchor="start" x="73.5" y="-176.3" font-family="Times,serif" font-weight="bold" font-size="14.00">User</text>
<polygon fill="none" stroke="black" points="8,-147.5 8,-168.5 176,-168.5 176,-147.5 8,-147.5"/>
<text text-anchor="start" x="11" y="-154.3" font-family="Times,serif" font-size="14.00">id : String (PK)</text>
<polygon fill="none" stroke="black" points="8,-126.5 8,-147.5 176,-147.5 176,-126.5 8,-126.5"/>
<text text-anchor="start" x="11" y="-133.3" font-family="Times,serif" font-size="14.00">email : String (unique)</text>
<polygon fill="none" stroke="black" points="8,-105.5 8,-126.5 176,-126.5 176,-105.5 8,-105.5"/>
<text text-anchor="start" x="11" y="-112.3" font-family="Times,serif" font-size="14.00">name : String?</text>
<polygon fill="none" stroke="black" points="8,-84.5 8,-105.5 176,-105.5 176,-84.5 8,-84.5"/>
<text text-anchor="start" x="11" y="-91.3" font-family="Times,serif" font-size="14.00">password : String?</text>
<polygon fill="none" stroke="black" points="8,-63.5 8,-84.5 176,-84.5 176,-63.5 8,-63.5"/>
<text text-anchor="start" x="11" y="-70.3" font-family="Times,serif" font-size="14.00">createdAt : DateTime</text>
</g>
<!-- Order -->
<g id="node3" class="node">
<title>Order</title>
<polygon fill="#e8f5e9" stroke="transparent" points="253,-129.5 253,-150.5 479,-150.5 479,-129.5 253,-129.5"/>
<polygon fill="none" stroke="black" points="253,-129.5 253,-150.5 479,-150.5 479,-129.5 253,-129.5"/>
<text text-anchor="start" x="343" y="-137.3" font-family="Times,serif" font-weight="bold" font-size="14.00">Order</text>
<polygon fill="none" stroke="black" points="253,-108.5 253,-129.5 479,-129.5 479,-108.5 253,-108.5"/>
<text text-anchor="start" x="256" y="-115.3" font-family="Times,serif" font-size="14.00">id : String (PK)</text>
<polygon fill="none" stroke="black" points="253,-87.5 253,-108.5 479,-108.5 479,-87.5 253,-87.5"/>
<text text-anchor="start" x="256" y="-94.3" font-family="Times,serif" font-size="14.00">orderNumber : String (unique)</text>
<polygon fill="none" stroke="black" points="253,-66.5 253,-87.5 479,-87.5 479,-66.5 253,-66.5"/>
<text text-anchor="start" x="256" y="-73.3" font-family="Times,serif" font-size="14.00">userId : String (FK)</text>
<polygon fill="none" stroke="black" points="253,-45.5 253,-66.5 479,-66.5 479,-45.5 253,-45.5"/>
<text text-anchor="start" x="256" y="-52.3" font-family="Times,serif" font-size="14.00">total : Decimal</text>
<polygon fill="none" stroke="black" points="253,-24.5 253,-45.5 479,-45.5 479,-24.5 253,-24.5"/>
<text text-anchor="start" x="256" y="-31.3" font-family="Times,serif" font-size="14.00">status : OrderStatus</text>
<polygon fill="none" stroke="black" points="253,-3.5 253,-24.5 479,-24.5 479,-3.5 253,-3.5"/>
<text text-anchor="start" x="256" y="-10.3" font-family="Times,serif" font-size="14.00">createdAt : DateTime</text>
</g>
<!-- User&#45;&gt;Order -->
<g id="edge1" class="edge">
<title>User:e&#45;&gt;Order:w</title>
<path fill="none" stroke="black" d="M184,-126.5C201.39,-126.5 227.61,-77.5 245,-77.5"/>
<text text-anchor="middle" x="214.5" y="-119.3" font-family="Times,serif" font-size="14.00">1..*</text>
</g>
<!-- CartItem -->
<g id="node5" class="node">
<title>CartItem</title>
<polygon fill="#f3e5f5" stroke="transparent" points="264,-282.5 264,-303.5 469,-303.5 469,-282.5 264,-282.5"/>
<polygon fill="none" stroke="black" points="264,-282.5 264,-303.5 469,-303.5 469,-282.5 264,-282.5"/>
<text text-anchor="start" x="330" y="-290.3" font-family="Times,serif" font-weight="bold" font-size="14.00">CartItem</text>
<polygon fill="none" stroke="black" points="264,-261.5 264,-282.5 469,-282.5 469,-261.5 264,-261.5"/>
<text text-anchor="start" x="267" y="-268.3" font-family="Times,serif" font-size="14.00">id : String (PK)</text>
<polygon fill="none" stroke="black" points="264,-240.5 264,-261.5 469,-261.5 469,-240.5 264,-240.5"/>
<text text-anchor="start" x="267" y="-247.3" font-family="Times,serif" font-size="14.00">userId : String (FK)</text>
<polygon fill="none" stroke="black" points="264,-219.5 264,-240.5 469,-240.5 469,-219.5 264,-219.5"/>
<text text-anchor="start" x="267" y="-226.3" font-family="Times,serif" font-size="14.00">productId : String (FK)</text>
<polygon fill="none" stroke="black" points="264,-198.5 264,-219.5 469,-219.5 469,-198.5 264,-198.5"/>
<text text-anchor="start" x="267" y="-205.3" font-family="Times,serif" font-size="14.00">quantity : Int</text>
<polygon fill="none" stroke="black" points="264,-177.5 264,-198.5 469,-198.5 469,-177.5 264,-177.5"/>
<text text-anchor="start" x="267" y="-184.3" font-family="Times,serif" font-size="14.00">UNIQUE(userId, productId)</text>
</g>
<!-- User&#45;&gt;CartItem -->
<g id="edge4" class="edge">
<title>User:s&#45;&gt;CartItem:n</title>
<path fill="none" stroke="black" d="M92,-58.5C92,1.74 187.28,-25.21 227,-70.5 261.98,-110.38 215.97,-272.12 255.5,-307.5 292.1,-340.26 366,-357.61 366,-308.5"/>
<text text-anchor="middle" x="214.5" y="-74.3" font-family="Times,serif" font-size="14.00">1..*</text>
</g>
<!-- Product -->
<g id="node2" class="node">
<title>Product</title>
<polygon fill="#fff8e1" stroke="transparent" points="13,-455.5 13,-476.5 172,-476.5 172,-455.5 13,-455.5"/>
<polygon fill="none" stroke="black" points="13,-455.5 13,-476.5 172,-476.5 172,-455.5 13,-455.5"/>
<text text-anchor="start" x="61" y="-463.3" font-family="Times,serif" font-weight="bold" font-size="14.00">Product</text>
<polygon fill="none" stroke="black" points="13,-434.5 13,-455.5 172,-455.5 172,-434.5 13,-434.5"/>
<text text-anchor="start" x="16" y="-441.3" font-family="Times,serif" font-size="14.00">id : String (PK)</text>
<polygon fill="none" stroke="black" points="13,-413.5 13,-434.5 172,-434.5 172,-413.5 13,-413.5"/>
<text text-anchor="start" x="16" y="-420.3" font-family="Times,serif" font-size="14.00">name : String</text>
<polygon fill="none" stroke="black" points="13,-392.5 13,-413.5 172,-413.5 172,-392.5 13,-392.5"/>
<text text-anchor="start" x="16" y="-399.3" font-family="Times,serif" font-size="14.00">description : String?</text>
<polygon fill="none" stroke="black" points="13,-371.5 13,-392.5 172,-392.5 172,-371.5 13,-371.5"/>
<text text-anchor="start" x="16" y="-378.3" font-family="Times,serif" font-size="14.00">price : Decimal</text>
<polygon fill="none" stroke="black" points="13,-350.5 13,-371.5 172,-371.5 172,-350.5 13,-350.5"/>
<text text-anchor="start" x="16" y="-357.3" font-family="Times,serif" font-size="14.00">image : String?</text>
<polygon fill="none" stroke="black" points="13,-329.5 13,-350.5 172,-350.5 172,-329.5 13,-329.5"/>
<text text-anchor="start" x="16" y="-336.3" font-family="Times,serif" font-size="14.00">stock : Int</text>
<polygon fill="none" stroke="black" points="13,-308.5 13,-329.5 172,-329.5 172,-308.5 13,-308.5"/>
<text text-anchor="start" x="16" y="-315.3" font-family="Times,serif" font-size="14.00">isActive : Boolean</text>
<polygon fill="none" stroke="black" points="13,-287.5 13,-308.5 172,-308.5 172,-287.5 13,-287.5"/>
<text text-anchor="start" x="16" y="-294.3" font-family="Times,serif" font-size="14.00">createdAt : DateTime</text>
</g>
<!-- OrderItem -->
<g id="node4" class="node">
<title>OrderItem</title>
<polygon fill="#fff3e0" stroke="transparent" points="556,-344.5 556,-365.5 726,-365.5 726,-344.5 556,-344.5"/>
<polygon fill="none" stroke="black" points="556,-344.5 556,-365.5 726,-365.5 726,-344.5 556,-344.5"/>
<text text-anchor="start" x="599" y="-352.3" font-family="Times,serif" font-weight="bold" font-size="14.00">OrderItem</text>
<polygon fill="none" stroke="black" points="556,-323.5 556,-344.5 726,-344.5 726,-323.5 556,-323.5"/>
<text text-anchor="start" x="559" y="-330.3" font-family="Times,serif" font-size="14.00">id : String (PK)</text>
<polygon fill="none" stroke="black" points="556,-302.5 556,-323.5 726,-323.5 726,-302.5 556,-302.5"/>
<text text-anchor="start" x="559" y="-309.3" font-family="Times,serif" font-size="14.00">orderId : String (FK)</text>
<polygon fill="none" stroke="black" points="556,-281.5 556,-302.5 726,-302.5 726,-281.5 556,-281.5"/>
<text text-anchor="start" x="559" y="-288.3" font-family="Times,serif" font-size="14.00">productId : String (FK)</text>
<polygon fill="none" stroke="black" points="556,-260.5 556,-281.5 726,-281.5 726,-260.5 556,-260.5"/>
<text text-anchor="start" x="559" y="-267.3" font-family="Times,serif" font-size="14.00">quantity : Int</text>
<polygon fill="none" stroke="black" points="556,-239.5 556,-260.5 726,-260.5 726,-239.5 556,-239.5"/>
<text text-anchor="start" x="559" y="-246.3" font-family="Times,serif" font-size="14.00">price : Decimal</text>
</g>
<!-- Product&#45;&gt;OrderItem -->
<g id="edge3" class="edge">
<title>Product:e&#45;&gt;OrderItem:w</title>
<path fill="none" stroke="black" d="M181,-382.5C320.13,-382.5 351.2,-346.73 487,-316.5 493.79,-314.99 541.05,-302.5 548,-302.5"/>
<text text-anchor="middle" x="366" y="-382.3" font-family="Times,serif" font-size="14.00">1..*</text>
</g>
<!-- Product&#45;&gt;CartItem -->
<g id="edge5" class="edge">
<title>Product:s&#45;&gt;CartItem:n</title>
<path fill="none" stroke="black" d="M92,-282.5C92,-160.18 366,-430.82 366,-308.5"/>
<text text-anchor="middle" x="214.5" y="-295.3" font-family="Times,serif" font-size="14.00">1..*</text>
</g>
<!-- Order&#45;&gt;OrderItem -->
<g id="edge2" class="edge">
<title>Order:e&#45;&gt;OrderItem:w</title>
<path fill="none" stroke="black" d="M487,-77.5C538.8,-77.5 496.2,-302.5 548,-302.5"/>
<text text-anchor="middle" x="517.5" y="-290.3" font-family="Times,serif" font-size="14.00">1..*</text>
</g>
<!-- OrderStatus -->
<g id="node6" class="node">
<title>OrderStatus</title>
<polygon fill="#eeeeee" stroke="transparent" points="558,-119.5 558,-140.5 724,-140.5 724,-119.5 558,-119.5"/>
<polygon fill="none" stroke="black" points="558,-119.5 558,-140.5 724,-140.5 724,-119.5 558,-119.5"/>
<text text-anchor="start" x="561" y="-127.3" font-family="Times,serif" font-weight="bold" font-size="14.00">OrderStatus (enum)</text>
<polygon fill="none" stroke="black" points="558,-98.5 558,-119.5 724,-119.5 724,-98.5 558,-98.5"/>
<text text-anchor="start" x="561" y="-105.3" font-family="Times,serif" font-size="14.00">PENDING</text>
<polygon fill="none" stroke="black" points="558,-77.5 558,-98.5 724,-98.5 724,-77.5 558,-77.5"/>
<text text-anchor="start" x="561" y="-84.3" font-family="Times,serif" font-size="14.00">PROCESSING</text>
<polygon fill="none" stroke="black" points="558,-56.5 558,-77.5 724,-77.5 724,-56.5 558,-56.5"/>
<text text-anchor="start" x="561" y="-63.3" font-family="Times,serif" font-size="14.00">SHIPPED</text>
<polygon fill="none" stroke="black" points="558,-35.5 558,-56.5 724,-56.5 724,-35.5 558,-35.5"/>
<text text-anchor="start" x="561" y="-42.3" font-family="Times,serif" font-size="14.00">DELIVERED</text>
<polygon fill="none" stroke="black" points="558,-14.5 558,-35.5 724,-35.5 724,-14.5 558,-14.5"/>
<text text-anchor="start" x="561" y="-21.3" font-family="Times,serif" font-size="14.00">CANCELLED</text>
</g>
<!-- Order&#45;&gt;OrderStatus -->
<g id="edge6" class="edge">
<title>Order&#45;&gt;OrderStatus</title>
<path fill="none" stroke="black" stroke-dasharray="5,2" d="M487.14,-77.5C508.17,-77.5 529.72,-77.5 549.77,-77.5"/>
</g>
</g>
</svg>
