<svg width="800" height="600" xmlns="http://www.w3.org/2000/svg">
  <defs>
    <style>
      .title { font-family: Arial, sans-serif; font-size: 18px; font-weight: bold; fill: #1f2937; }
      .directory { font-family: Arial, sans-serif; font-size: 12px; fill: #1e40af; }
      .file { font-family: Arial, sans-serif; font-size: 12px; fill: #059669; }
      .config { font-family: Arial, sans-serif; font-size: 12px; fill: #ea580c; }
      .rect-directory { fill: #dbeafe; stroke: #3b82f6; stroke-width: 2; }
      .rect-file { fill: #d1fae5; stroke: #10b981; stroke-width: 2; }
      .rect-config { fill: #fed7aa; stroke: #f97316; stroke-width: 2; }
      .legend-text { font-family: Arial, sans-serif; font-size: 11px; fill: #374151; }
    </style>
  </defs>
  
  <!-- Title -->
  <text x="20" y="30" class="title">E-Commerce Frontend Project Structure</text>
  
  <!-- Root Directory -->
  <rect x="20" y="50" width="120" height="30" class="rect-directory" rx="5"/>
  <text x="30" y="70" class="directory">ecommerce-frontend/</text>
  
  <!-- Configuration Files -->
  <rect x="20" y="90" width="80" height="25" class="rect-config" rx="3"/>
  <text x="25" y="107" class="config">package.json</text>
  
  <rect x="110" y="90" width="100" height="25" class="rect-config" rx="3"/>
  <text x="115" y="107" class="config">tailwind.config.js</text>
  
  <rect x="220" y="90" width="90" height="25" class="rect-config" rx="3"/>
  <text x="225" y="107" class="config">next.config.js</text>
  
  <rect x="320" y="90" width="50" height="25" class="rect-config" rx="3"/>
  <text x="325" y="107" class="config">.env</text>
  
  <rect x="380" y="90" width="60" height="25" class="rect-config" rx="3"/>
  <text x="385" y="107" class="config">tsconfig.json</text>
  
  <!-- Main Directories -->
  <rect x="20" y="130" width="40" height="25" class="rect-directory" rx="3"/>
  <text x="25" y="147" class="directory">app/</text>
  
  <rect x="70" y="130" width="60" height="25" class="rect-directory" rx="3"/>
  <text x="75" y="147" class="directory">components/</text>
  
  <rect x="140" y="130" width="50" height="25" class="rect-directory" rx="3"/>
  <text x="145" y="147" class="directory">lib/</text>
  
  <rect x="200" y="130" width="50" height="25" class="rect-directory" rx="3"/>
  <text x="205" y="147" class="directory">store/</text>
  
  <rect x="260" y="130" width="60" height="25" class="rect-directory" rx="3"/>
  <text x="265" y="147" class="directory">prisma/</text>
  
  <rect x="330" y="130" width="50" height="25" class="rect-directory" rx="3"/>
  <text x="335" y="147" class="directory">types/</text>
  
  <rect x="390" y="130" width="60" height="25" class="rect-directory" rx="3"/>
  <text x="395" y="147" class="directory">__tests__/</text>
  
  <!-- App Directory Structure -->
  <rect x="20" y="170" width="40" height="25" class="rect-directory" rx="3"/>
  <text x="25" y="187" class="directory">app/</text>
  
  <!-- App Pages -->
  <rect x="70" y="170" width="60" height="20" class="rect-file" rx="2"/>
  <text x="75" y="183" class="file">page.tsx</text>
  
  <rect x="140" y="170" width="80" height="20" class="rect-file" rx="2"/>
  <text x="145" y="183" class="file">layout.tsx</text>
  
  <rect x="230" y="170" width="80" height="20" class="rect-file" rx="2"/>
  <text x="235" y="183" class="file">globals.css</text>
  
  <!-- App Subdirectories -->
  <rect x="70" y="200" width="60" height="20" class="rect-directory" rx="2"/>
  <text x="75" y="213" class="directory">products/</text>
  
  <rect x="140" y="200" width="50" height="20" class="rect-directory" rx="2"/>
  <text x="145" y="213" class="directory">cart/</text>
  
  <rect x="200" y="200" width="70" height="20" class="rect-directory" rx="2"/>
  <text x="205" y="213" class="directory">checkout/</text>
  
  <rect x="280" y="200" width="50" height="20" class="rect-directory" rx="2"/>
  <text x="285" y="213" class="directory">admin/</text>
  
  <rect x="340" y="200" width="50" height="20" class="rect-directory" rx="2"/>
  <text x="345" y="213" class="directory">api/</text>
  
  <!-- Product Pages -->
  <rect x="70" y="230" width="80" height="18" class="rect-file" rx="2"/>
  <text x="75" y="242" class="file">products/page.tsx</text>
  
  <rect x="160" y="230" width="100" height="18" class="rect-file" rx="2"/>
  <text x="165" y="242" class="file">products/[id]/page.tsx</text>
  
  <!-- Other Pages -->
  <rect x="270" y="230" width="60" height="18" class="rect-file" rx="2"/>
  <text x="275" y="242" class="file">cart/page.tsx</text>
  
  <rect x="340" y="230" width="80" height="18" class="rect-file" rx="2"/>
  <text x="345" y="242" class="file">checkout/page.tsx</text>
  
  <!-- Admin Pages -->
  <rect x="70" y="260" width="80" height="18" class="rect-file" rx="2"/>
  <text x="75" y="272" class="file">admin/page.tsx</text>
  
  <rect x="160" y="260" width="100" height="18" class="rect-file" rx="2"/>
  <text x="165" y="272" class="file">admin/products/page.tsx</text>
  
  <rect x="270" y="260" width="90" height="18" class="rect-file" rx="2"/>
  <text x="275" y="272" class="file">admin/orders/page.tsx</text>
  
  <!-- Components Directory -->
  <rect x="20" y="300" width="80" height="25" class="rect-directory" rx="3"/>
  <text x="25" y="317" class="directory">components/</text>
  
  <!-- Component Subdirectories -->
  <rect x="110" y="300" width="60" height="20" class="rect-directory" rx="2"/>
  <text x="115" y="313" class="directory">layout/</text>
  
  <rect x="180" y="300" width="40" height="20" class="rect-directory" rx="2"/>
  <text x="185" y="313" class="directory">ui/</text>
  
  <rect x="230" y="300" width="70" height="20" class="rect-directory" rx="2"/>
  <text x="235" y="313" class="directory">providers/</text>
  
  <!-- Layout Components -->
  <rect x="110" y="330" width="60" height="18" class="rect-file" rx="2"/>
  <text x="115" y="342" class="file">header.tsx</text>
  
  <rect x="180" y="330" width="60" height="18" class="rect-file" rx="2"/>
  <text x="185" y="342" class="file">footer.tsx</text>
  
  <!-- UI Components -->
  <rect x="110" y="360" width="50" height="18" class="rect-file" rx="2"/>
  <text x="115" y="372" class="file">button.tsx</text>
  
  <rect x="170" y="360" width="50" height="18" class="rect-file" rx="2"/>
  <text x="175" y="372" class="file">card.tsx</text>
  
  <rect x="230" y="360" width="50" height="18" class="rect-file" rx="2"/>
  <text x="235" y="372" class="file">input.tsx</text>
  
  <rect x="290" y="360" width="50" height="18" class="rect-file" rx="2"/>
  <text x="295" y="372" class="file">badge.tsx</text>
  
  <!-- Lib Directory -->
  <rect x="20" y="400" width="40" height="25" class="rect-directory" rx="3"/>
  <text x="25" y="417" class="directory">lib/</text>
  
  <!-- Lib Files -->
  <rect x="70" y="400" width="50" height="18" class="rect-file" rx="2"/>
  <text x="75" y="412" class="file">auth.ts</text>
  
  <rect x="130" y="400" width="40" height="18" class="rect-file" rx="2"/>
  <text x="135" y="412" class="file">db.ts</text>
  
  <rect x="180" y="400" width="50" height="18" class="rect-file" rx="2"/>
  <text x="185" y="412" class="file">stripe.ts</text>
  
  <rect x="240" y="400" width="50" height="18" class="rect-file" rx="2"/>
  <text x="245" y="412" class="file">utils.ts</text>
  
  <!-- Store Directory -->
  <rect x="20" y="440" width="50" height="25" class="rect-directory" rx="3"/>
  <text x="25" y="457" class="directory">store/</text>
  
  <rect x="80" y="440" width="80" height="18" class="rect-file" rx="2"/>
  <text x="85" y="452" class="file">cart-store.ts</text>
  
  <!-- Prisma Directory -->
  <rect x="170" y="440" width="60" height="25" class="rect-directory" rx="3"/>
  <text x="175" y="457" class="directory">prisma/</text>
  
  <rect x="240" y="440" width="80" height="18" class="rect-file" rx="2"/>
  <text x="245" y="452" class="file">schema.prisma</text>
  
  <rect x="330" y="440" width="50" height="18" class="rect-file" rx="2"/>
  <text x="335" y="452" class="file">seed.ts</text>
  
  <!-- Legend -->
  <rect x="500" y="50" width="250" height="200" fill="#f9fafb" stroke="#d1d5db" stroke-width="1" rx="5"/>
  <text x="510" y="70" class="legend-text" font-weight="bold">Legend</text>
  
  <rect x="510" y="80" width="20" height="15" class="rect-directory" rx="2"/>
  <text x="540" y="92" class="legend-text">Directory/Folder</text>
  
  <rect x="510" y="105" width="20" height="15" class="rect-file" rx="2"/>
  <text x="540" y="117" class="legend-text">React Component/File</text>
  
  <rect x="510" y="130" width="20" height="15" class="rect-config" rx="2"/>
  <text x="540" y="142" class="legend-text">Configuration File</text>
  
  <!-- Key Features -->
  <rect x="500" y="270" width="250" height="120" fill="#eff6ff" stroke="#3b82f6" stroke-width="1" rx="5"/>
  <text x="510" y="290" class="legend-text" font-weight="bold">Key Features</text>
  
  <text x="510" y="310" class="legend-text">• Next.js App Router</text>
  <text x="510" y="325" class="legend-text">• TypeScript Support</text>
  <text x="510" y="340" class="legend-text">• E-commerce Components</text>
  <text x="510" y="355" class="legend-text">• Prisma ORM</text>
  <text x="510" y="370" class="legend-text">• Stripe Payment Integration</text>
</svg>
