<svg width="800" height="600" xmlns="http://www.w3.org/2000/svg">
  <defs>
    <style>
      .title { font-family: Arial, sans-serif; font-size: 18px; font-weight: bold; fill: #1f2937; }
      .directory { font-family: Arial, sans-serif; font-size: 12px; fill: #1e40af; }
      .file { font-family: Arial, sans-serif; font-size: 12px; fill: #059669; }
      .config { font-family: Arial, sans-serif; font-size: 12px; fill: #ea580c; }
      .rect-directory { fill: #dbeafe; stroke: #3b82f6; stroke-width: 2; }
      .rect-file { fill: #d1fae5; stroke: #10b981; stroke-width: 2; }
      .rect-config { fill: #fed7aa; stroke: #f97316; stroke-width: 2; }
      .rect-api { fill: #fef3c7; stroke: #f59e0b; stroke-width: 2; }
      .legend-text { font-family: Arial, sans-serif; font-size: 11px; fill: #374151; }
    </style>
  </defs>
  
  <!-- Title -->
  <text x="20" y="30" class="title">E-Commerce Backend Project Structure</text>
  
  <!-- Root Directory -->
  <rect x="20" y="50" width="140" height="30" class="rect-directory" rx="5"/>
  <text x="30" y="70" class="directory">ecommerce-backend/</text>
  
  <!-- Configuration Files -->
  <rect x="20" y="90" width="80" height="25" class="rect-config" rx="3"/>
  <text x="25" y="107" class="config">package.json</text>
  
  <rect x="110" y="90" width="100" height="25" class="rect-config" rx="3"/>
  <text x="115" y="107" class="config">next.config.js</text>
  
  <rect x="220" y="90" width="50" height="25" class="rect-config" rx="3"/>
  <text x="225" y="107" class="config">.env</text>
  
  <rect x="280" y="90" width="60" height="25" class="rect-config" rx="3"/>
  <text x="285" y="107" class="config">tsconfig.json</text>
  
  <rect x="350" y="90" width="80" height="25" class="rect-config" rx="3"/>
  <text x="355" y="107" class="config">tailwind.config.js</text>
  
  <!-- Main Directories -->
  <rect x="20" y="130" width="40" height="25" class="rect-directory" rx="3"/>
  <text x="25" y="147" class="directory">app/</text>
  
  <rect x="70" y="130" width="60" height="25" class="rect-directory" rx="3"/>
  <text x="75" y="147" class="directory">lib/</text>
  
  <rect x="140" y="130" width="60" height="25" class="rect-directory" rx="3"/>
  <text x="145" y="147" class="directory">prisma/</text>
  
  <rect x="210" y="130" width="50" height="25" class="rect-directory" rx="3"/>
  <text x="215" y="147" class="directory">types/</text>
  
  <rect x="270" y="130" width="60" height="25" class="rect-directory" rx="3"/>
  <text x="275" y="147" class="directory">store/</text>
  
  <rect x="340" y="130" width="60" height="25" class="rect-directory" rx="3"/>
  <text x="345" y="147" class="directory">__tests__/</text>
  
  <!-- API Routes Structure -->
  <rect x="20" y="170" width="60" height="25" class="rect-directory" rx="3"/>
  <text x="25" y="187" class="directory">app/api/</text>
  
  <!-- API Subdirectories -->
  <rect x="90" y="170" width="50" height="20" class="rect-directory" rx="2"/>
  <text x="95" y="183" class="directory">auth/</text>
  
  <rect x="150" y="170" width="60" height="20" class="rect-directory" rx="2"/>
  <text x="155" y="183" class="directory">products/</text>
  
  <rect x="220" y="170" width="40" height="20" class="rect-directory" rx="2"/>
  <text x="225" y="183" class="directory">cart/</text>
  
  <rect x="270" y="170" width="50" height="20" class="rect-directory" rx="2"/>
  <text x="275" y="183" class="directory">orders/</text>
  
  <rect x="330" y="170" width="50" height="20" class="rect-directory" rx="2"/>
  <text x="335" y="183" class="directory">admin/</text>
  
  <!-- Auth API Routes -->
  <rect x="90" y="200" width="120" height="18" class="rect-api" rx="2"/>
  <text x="95" y="212" class="file">[...nextauth]/route.ts</text>
  
  <rect x="220" y="200" width="80" height="18" class="rect-api" rx="2"/>
  <text x="225" y="212" class="file">register/route.ts</text>
  
  <!-- Products API Routes -->
  <rect x="90" y="230" width="80" height="18" class="rect-api" rx="2"/>
  <text x="95" y="242" class="file">products/route.ts</text>
  
  <rect x="180" y="230" width="100" height="18" class="rect-api" rx="2"/>
  <text x="185" y="242" class="file">products/[id]/route.ts</text>
  
  <!-- Cart API Routes -->
  <rect x="90" y="260" width="60" height="18" class="rect-api" rx="2"/>
  <text x="95" y="272" class="file">cart/route.ts</text>
  
  <rect x="160" y="260" width="80" height="18" class="rect-api" rx="2"/>
  <text x="165" y="272" class="file">cart/[id]/route.ts</text>
  
  <!-- Orders API Routes -->
  <rect x="90" y="290" width="70" height="18" class="rect-api" rx="2"/>
  <text x="95" y="302" class="file">orders/route.ts</text>
  
  <rect x="170" y="290" width="90" height="18" class="rect-api" rx="2"/>
  <text x="175" y="302" class="file">orders/[id]/route.ts</text>
  
  <!-- Admin API Routes -->
  <rect x="90" y="320" width="80" height="18" class="rect-api" rx="2"/>
  <text x="95" y="332" class="file">admin/products/route.ts</text>
  
  <rect x="180" y="320" width="80" height="18" class="rect-api" rx="2"/>
  <text x="185" y="332" class="file">admin/orders/route.ts</text>
  
  <rect x="270" y="320" width="100" height="18" class="rect-api" rx="2"/>
  <text x="275" y="332" class="file">admin/dashboard/route.ts</text>
  
  <!-- Lib Directory -->
  <rect x="20" y="360" width="40" height="25" class="rect-directory" rx="3"/>
  <text x="25" y="377" class="directory">lib/</text>
  
  <!-- Lib Files -->
  <rect x="70" y="360" width="50" height="18" class="rect-file" rx="2"/>
  <text x="75" y="372" class="file">auth.ts</text>
  
  <rect x="130" y="360" width="40" height="18" class="rect-file" rx="2"/>
  <text x="135" y="372" class="file">db.ts</text>
  
  <rect x="180" y="360" width="50" height="18" class="rect-file" rx="2"/>
  <text x="185" y="372" class="file">stripe.ts</text>
  
  <rect x="240" y="360" width="50" height="18" class="rect-file" rx="2"/>
  <text x="245" y="372" class="file">utils.ts</text>
  
  <!-- Prisma Directory -->
  <rect x="20" y="390" width="60" height="25" class="rect-directory" rx="3"/>
  <text x="25" y="407" class="directory">prisma/</text>
  
  <rect x="90" y="390" width="80" height="18" class="rect-file" rx="2"/>
  <text x="95" y="402" class="file">schema.prisma</text>
  
  <rect x="180" y="390" width="50" height="18" class="rect-file" rx="2"/>
  <text x="185" y="402" class="file">seed.ts</text>
  
  <!-- Store Directory -->
  <rect x="20" y="420" width="50" height="25" class="rect-directory" rx="3"/>
  <text x="25" y="437" class="directory">store/</text>
  
  <rect x="80" y="420" width="80" height="18" class="rect-file" rx="2"/>
  <text x="85" y="432" class="file">cart-store.ts</text>
  
  <!-- Types Directory -->
  <rect x="170" y="420" width="50" height="25" class="rect-directory" rx="3"/>
  <text x="175" y="437" class="directory">types/</text>
  
  <rect x="230" y="420" width="100" height="18" class="rect-file" rx="2"/>
  <text x="235" y="432" class="file">next-auth.d.ts</text>
  
  <!-- Tests Directory -->
  <rect x="340" y="420" width="60" height="25" class="rect-directory" rx="3"/>
  <text x="345" y="437" class="directory">__tests__/</text>
  
  <rect x="410" y="420" width="80" height="18" class="rect-file" rx="2"/>
  <text x="415" y="432" class="file">api.test.ts</text>
  
  <!-- Legend -->
  <rect x="500" y="50" width="250" height="200" fill="#f9fafb" stroke="#d1d5db" stroke-width="1" rx="5"/>
  <text x="510" y="70" class="legend-text" font-weight="bold">Legend</text>
  
  <rect x="510" y="80" width="20" height="15" class="rect-directory" rx="2"/>
  <text x="540" y="92" class="legend-text">Directory/Folder</text>
  
  <rect x="510" y="105" width="20" height="15" class="rect-file" rx="2"/>
  <text x="540" y="117" class="legend-text">TypeScript File</text>
  
  <rect x="510" y="130" width="20" height="15" class="rect-config" rx="2"/>
  <text x="540" y="142" class="legend-text">Configuration File</text>
  
  <rect x="510" y="155" width="20" height="15" class="rect-api" rx="2"/>
  <text x="540" y="167" class="legend-text">API Route</text>
  
  <!-- Key Features -->
  <rect x="500" y="270" width="250" height="120" fill="#eff6ff" stroke="#3b82f6" stroke-width="1" rx="5"/>
  <text x="510" y="290" class="legend-text" font-weight="bold">Backend Features</text>
  
  <text x="510" y="310" class="legend-text">• Next.js API Routes</text>
  <text x="510" y="325" class="legend-text">• Prisma ORM</text>
  <text x="510" y="340" class="legend-text">• Stripe Payment Integration</text>
  <text x="510" y="355" class="legend-text">• NextAuth Authentication</text>
  <text x="510" y="370" class="legend-text">• TypeScript Support</text>
</svg>
